# xmcd
#
# Track frame offsets:
#	150
#	14325
#	28047
#	40348
#	58384
#	77338
#	90619
#	104663
#	123876
#	134685
#	148993
#	161828
#	172865
#	185318
#	200981
#	215084
#	227054
#	243392
#	259121
#	279240
#
# Disc length: 3921 seconds
#
# Revision: 1
# Processed by: cddbd v1.5.2PL0 Copyright (c) Steve Scherf et al.
# Submitted via: audiograbber 1.83.01
#
DISCID=2a0f4f14
DTITLE=Dolly Parton  - Blue Smoke - The Best Of - CD2
DYEAR=2014
DGENRE=Country
TTITLE0=I Will Always Love You
TTITLE1=Nine Two Five
TTITLE2=Jolene
TTITLE3=Together You And I
TTITLE4=Islands In The Stream
TTITLE5=Here You Come Again
TTITLE6=Coat Of Many Colors
TTITLE7=Little Sparrow
TTITLE8=Love Is Like A Butterfly
TTITLE9=My Tennessee Mountain Home
TTITLE10=In The Ghetto
TTITLE11=Silver Threads And Golden Needles
TTITLE12=Sacred Memories
TTITLE13=Applejack
TTITLE14=Two Doors Down
TTITLE15=Baby I'm Burnin'
TTITLE16=Better GetTo Livin'
TTITLE17=The Sacrifice
TTITLE18=From Here To The Moon And Back
TTITLE19=Better Day
EXTD=
EXTT0=
EXTT1=
EXTT2=
EXTT3=
EXTT4=
EXTT5=
EXTT6=
EXTT7=
EXTT8=
EXTT9=
EXTT10=
EXTT11=
EXTT12=
EXTT13=
EXTT14=
EXTT15=
EXTT16=
EXTT17=
EXTT18=
EXTT19=
PLAYORDER=
